<svg width="591" height="591" viewBox="0 0 591 591" fill="none" xmlns="http://www.w3.org/2000/svg">
<g clip-path="url(#clip0_31_4472)">
<path d="M295.02 590.04C457.955 590.04 590.04 457.955 590.04 295.02C590.04 132.085 457.955 0 295.02 0C132.085 0 0 132.085 0 295.02C0 457.955 132.085 590.04 295.02 590.04Z" fill="white"/>
<path fill-rule="evenodd" clip-rule="evenodd" d="M0.230469 294.14C0.230469 331.73 7.33047 367.69 20.2405 400.76C65.4705 330.56 234.29 68.6297 278.7 0.429688C123.77 8.59969 0.230469 137.21 0.230469 294.14Z" fill="url(#paint0_linear_31_4472)"/>
<path fill-rule="evenodd" clip-rule="evenodd" d="M321.7 1.29004C376.16 89.8 528.41 333.82 570.35 399.6C583.05 366.84 590.03 331.29 590.03 294.14C590.04 141.17 471.98 15.13 321.7 1.29004Z" fill="url(#paint1_linear_31_4472)"/>
<path fill-rule="evenodd" clip-rule="evenodd" d="M254.381 108.61C283.311 91.0098 340.521 80.0298 363.541 79.3698C363.401 80.1298 365.631 81.9898 365.481 82.7398C327.221 91.0398 305.761 107.32 293.961 116.12C275.161 130.13 270.461 153.09 276.951 170.46C282.121 184.29 293.181 197.37 303.611 207.5C375.071 277.02 544.071 413.87 544.541 414.95C544.681 414.92 544.801 414.92 544.851 415C535.931 398.69 399.161 142.92 388.371 124.4C388.301 124.29 388.231 124.1 388.161 123.91C388.271 123.63 388.261 123.13 388.141 122.88C387.111 120.8 384.271 115.67 380.281 108.6C364.281 80.2998 329.661 20.8898 317.521 0.919766C309.881 0.319766 302.161 0.00976562 294.361 0.00976562C291.931 0.00976562 289.521 0.0397656 287.111 0.0997656C282.161 10.6998 276.201 24.2898 270.021 38.7698L230.811 129.51C235.581 121.02 245.441 114.04 254.371 108.61H254.381Z" fill="url(#paint2_linear_31_4472)"/>
<path fill-rule="evenodd" clip-rule="evenodd" d="M275.37 227.369C259.9 215.199 241.04 193.509 233.72 175.789C227.73 161.289 223.96 148.699 227.57 137.029L136.22 348.459C131.78 357.939 127.83 366.359 124.61 373.259C124.8 372.849 124.11 374.329 124.11 374.329L124.71 374.119C173.4 350.919 231.02 337.489 292.79 337.489C427.14 337.489 488.3 380.159 544.85 422.069C518.5 396.359 364.85 297.749 275.36 227.359L275.37 227.369Z" fill="url(#paint3_linear_31_4472)"/>
<path fill-rule="evenodd" clip-rule="evenodd" d="M294.421 373.939H294.761C392.451 373.979 480.431 405.449 542.051 455.729H526.001C462.121 455.789 244.381 456.029 131.501 456.049H46.7607C108.401 405.589 196.521 373.979 294.421 373.939Z" fill="url(#paint4_linear_31_4472)"/>
<path fill-rule="evenodd" clip-rule="evenodd" d="M53.6201 464.32C106.83 540.5 195.13 590.45 294.9 590.45C394.67 590.45 483.25 540.35 536.43 463.97H54.0201C53.8901 464.09 53.7501 464.21 53.6201 464.33V464.32Z" fill="url(#paint5_linear_31_4472)"/>
<path fill-rule="evenodd" clip-rule="evenodd" d="M53.6201 464.32C106.83 540.5 195.13 590.45 294.9 590.45C394.67 590.45 483.25 540.35 536.43 463.97H54.0201C53.8901 464.09 53.7501 464.21 53.6201 464.33V464.32Z" fill="url(#paint6_linear_31_4472)"/>
</g>
<defs>
<linearGradient id="paint0_linear_31_4472" x1="139.47" y1="-82.0003" x2="139.47" y2="837.16" gradientUnits="userSpaceOnUse">
<stop stop-color="#C7C1C3"/>
<stop offset="0.11" stop-color="#E9BB61"/>
<stop offset="0.26" stop-color="#F29B6A"/>
<stop offset="0.37" stop-color="#C43932"/>
<stop offset="0.48" stop-color="#8C001E"/>
<stop offset="0.6" stop-color="#889FC5"/>
<stop offset="0.8" stop-color="#2273B0"/>
<stop offset="0.96" stop-color="#0E488F"/>
<stop offset="1" stop-color="#0E488F"/>
</linearGradient>
<linearGradient id="paint1_linear_31_4472" x1="455.87" y1="-81.96" x2="455.87" y2="837.18" gradientUnits="userSpaceOnUse">
<stop stop-color="#C7C1C3"/>
<stop offset="0.11" stop-color="#E9BB61"/>
<stop offset="0.26" stop-color="#F29B6A"/>
<stop offset="0.37" stop-color="#C43932"/>
<stop offset="0.48" stop-color="#8C001E"/>
<stop offset="0.6" stop-color="#889FC5"/>
<stop offset="0.8" stop-color="#2273B0"/>
<stop offset="0.96" stop-color="#0E488F"/>
<stop offset="1" stop-color="#0E488F"/>
</linearGradient>
<linearGradient id="paint2_linear_31_4472" x1="387.841" y1="-81.9902" x2="387.841" y2="837.17" gradientUnits="userSpaceOnUse">
<stop stop-color="#C7C1C3"/>
<stop offset="0.11" stop-color="#E9BB61"/>
<stop offset="0.26" stop-color="#F29B6A"/>
<stop offset="0.37" stop-color="#C43932"/>
<stop offset="0.48" stop-color="#8C001E"/>
<stop offset="0.6" stop-color="#889FC5"/>
<stop offset="0.8" stop-color="#2273B0"/>
<stop offset="0.96" stop-color="#0E488F"/>
<stop offset="1" stop-color="#0E488F"/>
</linearGradient>
<linearGradient id="paint3_linear_31_4472" x1="334.49" y1="-81.9907" x2="334.48" y2="837.149" gradientUnits="userSpaceOnUse">
<stop stop-color="#C7C1C3"/>
<stop offset="0.11" stop-color="#E9BB61"/>
<stop offset="0.26" stop-color="#F29B6A"/>
<stop offset="0.37" stop-color="#C43932"/>
<stop offset="0.48" stop-color="#8C001E"/>
<stop offset="0.6" stop-color="#889FC5"/>
<stop offset="0.8" stop-color="#2273B0"/>
<stop offset="0.96" stop-color="#0E488F"/>
<stop offset="1" stop-color="#0E488F"/>
</linearGradient>
<linearGradient id="paint4_linear_31_4472" x1="294.411" y1="454.549" x2="294.411" y2="374.629" gradientUnits="userSpaceOnUse">
<stop stop-color="#F29B6A"/>
<stop offset="0.12" stop-color="#F29B6A"/>
<stop offset="0.45" stop-color="#D76545"/>
<stop offset="0.63" stop-color="#C43932"/>
<stop offset="1" stop-color="#8C001E"/>
</linearGradient>
<linearGradient id="paint5_linear_31_4472" x1="53.7101" y1="527.14" x2="536.52" y2="527.13" gradientUnits="userSpaceOnUse">
<stop stop-color="#C2CDDA"/>
<stop offset="0.08" stop-color="#AFBED3"/>
<stop offset="0.56" stop-color="#1F6BA4"/>
<stop offset="0.87" stop-color="#0E4771"/>
<stop offset="1" stop-color="#0E4771"/>
</linearGradient>
<linearGradient id="paint6_linear_31_4472" x1="295.03" y1="465.21" x2="295.03" y2="610.47" gradientUnits="userSpaceOnUse">
<stop stop-color="#C2CDDA"/>
<stop offset="0.09" stop-color="#AFBED3"/>
<stop offset="0.52" stop-color="#1F6BA4"/>
<stop offset="0.87" stop-color="#0F4873"/>
<stop offset="1" stop-color="#0F4873"/>
</linearGradient>
<clipPath id="clip0_31_4472">
<rect width="590.04" height="590.45" fill="white"/>
</clipPath>
</defs>
</svg>
